<svg xmlns="http://www.w3.org/2000/svg" version="1.1" xmlns:xlink="http://www.w3.org/1999/xlink" xmlns:svgjs="http://svgjs.com/svgjs" id="Pattern983SvgRootPreview" width="100%" height="100%"><defs><pattern x="0" y="0" width="1" height="1" patternUnits="userSpaceOnUse" id="Pattern983Layer1"><g id="PatternRootContent1"><g id="Pattern983Layer1background"><rect width="1" height="1" id="Pattern983Background1" class="color_1 fill_color_1" fill="#d0d0d0"></rect></g></g></pattern><pattern x="0" y="0" width="42" height="72" patternUnits="userSpaceOnUse" id="Pattern983Layer2"><g id="PatternRootContent2"><g id="Pattern983Layer2Element2"><use xlink:href="#Pattern983Element2" x="14.46126937866211" y="-46.886924743652344" transform="translate(42, -18) scale(1) translate(-42, 18) rotate(45, 42, -18)"></use><use xlink:href="#Pattern983Element2" x="-27.53873062133789" y="-46.886924743652344" transform="translate(0, -18) scale(1) translate(0, 18) rotate(45, 0, -18)"></use><use xlink:href="#Pattern983Element2" x="-6.538730621337891" y="-10.886924743652344" transform="translate(21, 18) scale(1) translate(-21, -18) rotate(45, 21, 18)"></use><use xlink:href="#Pattern983Element2" x="-48.53873062133789" y="-10.886924743652344" transform="translate(-21, 18) scale(1) translate(21, -18) rotate(45, -21, 18)"></use><use xlink:href="#Pattern983Element2" x="35.46126937866211" y="-10.886924743652344" transform="translate(63, 18) scale(1) translate(-63, -18) rotate(45, 63, 18)"></use><use xlink:href="#Pattern983Element2" x="14.46126937866211" y="25.113075256347656" transform="translate(42, 54) scale(1) translate(-42, -54) rotate(45, 42, 54)"></use><use xlink:href="#Pattern983Element2" x="-27.53873062133789" y="25.113075256347656" transform="translate(0, 54) scale(1) translate(0, -54) rotate(45, 0, 54)"></use><use xlink:href="#Pattern983Element2" x="-6.538730621337891" y="61.113075256347656" transform="translate(21, 90) scale(1) translate(-21, -90) rotate(45, 21, 90)"></use><use xlink:href="#Pattern983Element2" x="-6.538730621337891" y="61.113075256347656" transform="translate(21, 90) scale(1) translate(-21, -90) rotate(45, 21, 90)"></use></g></g></pattern><symbol id="Pattern983Element2"><g class="color_3 fill_color_3" fill="#8d8d8d"><path d="M16.225,8.485483169555664l19.799,19.799l2.828,-2.828L19.053,5.657055377960205l-2.828,2.828Zm-8.485,2.828l19.799,19.799l2.828,-2.828L10.568,8.485483169555664l-2.828,2.828Zm19.799,-8.485l-2.828,2.828l19.799,19.799l2.828,-2.828L27.539,2.8286283016204834Z"></path><path d="M50.936,29.41544532775879l-27.046,7.247l1.035,3.864L51.972,33.27914810180664l-1.036,-3.864Zm1.794,-8.763l-27.046,7.247l1.035,3.864L53.765,24.51646614074707l-1.035,-3.864Zm-2.551,21.389l-1.035,-3.864l-27.046,7.247l1.035,3.864L50.178,42.041831970214844Z"></path><path d="M15.455,49.0113639831543l7.247,-27.046l-3.864,-1.035L11.591,47.97608947753906l3.864,1.035Zm6.692,5.934l7.247,-27.046l-3.864,-1.035L18.283,53.910343170166016l3.864,1.035Zm-17.248,-12.904l3.864,1.035l7.247,-27.046l-3.864,-1.035L4.899,42.041831970214844Z"></path></g></symbol></defs><rect width="100%" height="100%" id="Pattern983RctLayer1" fill="url(#Pattern983Layer1)"></rect><rect width="100%" height="100%" id="Pattern983RctLayer2" fill="url(#Pattern983Layer2)"></rect></svg>